<?xml version="1.0" encoding="UTF-8" standalone="no"?>
<!-- Created with Inkscape (http://www.inkscape.org/) -->

<svg
   width="532"
   height="105.61881"
   id="svg2453"
   sodipodi:version="0.32"
   inkscape:version="1.2.1 (9c6d41e, 2022-07-14)"
   version="1.0"
   sodipodi:docname="PJTITRE.svg"
   inkscape:output_extension="org.inkscape.output.svg.inkscape"
   xmlns:inkscape="http://www.inkscape.org/namespaces/inkscape"
   xmlns:sodipodi="http://sodipodi.sourceforge.net/DTD/sodipodi-0.dtd"
   xmlns="http://www.w3.org/2000/svg"
   xmlns:svg="http://www.w3.org/2000/svg"
   xmlns:rdf="http://www.w3.org/1999/02/22-rdf-syntax-ns#"
   xmlns:cc="http://creativecommons.org/ns#"
   xmlns:dc="http://purl.org/dc/elements/1.1/">
  <defs
     id="defs2455">
    <inkscape:perspective
       sodipodi:type="inkscape:persp3d"
       inkscape:vp_x="0 : 526.18109 : 1"
       inkscape:vp_y="0 : 1000 : 0"
       inkscape:vp_z="744.09448 : 526.18109 : 1"
       inkscape:persp3d-origin="372.04724 : 350.78739 : 1"
       id="perspective2461" />
  </defs>
  <sodipodi:namedview
     id="base"
     pagecolor="#ffffff"
     bordercolor="#666666"
     borderopacity="1.0"
     inkscape:pageopacity="0.0"
     inkscape:pageshadow="2"
     inkscape:zoom="1.979899"
     inkscape:cx="182.83761"
     inkscape:cy="80.054589"
     inkscape:document-units="px"
     inkscape:current-layer="layer1"
     showgrid="false"
     inkscape:window-width="1440"
     inkscape:window-height="847"
     inkscape:window-x="0"
     inkscape:window-y="25"
     inkscape:showpageshadow="2"
     inkscape:pagecheckerboard="0"
     inkscape:deskcolor="#d1d1d1"
     inkscape:window-maximized="1" />
  <metadata
     id="metadata2458">
    <rdf:RDF>
      <cc:Work
         rdf:about="">
        <dc:format>image/svg+xml</dc:format>
        <dc:type
           rdf:resource="http://purl.org/dc/dcmitype/StillImage" />
      </cc:Work>
    </rdf:RDF>
  </metadata>
  <g
     inkscape:label="Capa 1"
     inkscape:groupmode="layer"
     id="layer1"
     transform="translate(-156.85714,-533.83849)">
    <path
       style="fill:#ffffff"
       d="M 156.85714,586.65532 L 156.85714,534.15532 L 172.60714,534.1862 C 209.13207,534.2578 215.04959,537.64075 216.44656,559.24851 C 217.36669,573.48061 216.2908,584.2003 213.52269,588.38061 C 210.17477,593.43654 203.86969,596.03428 193.08876,596.79953 L 183.85714,597.45481 L 183.85714,618.30506 L 183.85714,639.15532 L 170.35714,639.15532 L 156.85714,639.15532 L 156.85714,586.65532 z M 192.30044,576.93282 C 193.44273,575.30196 193.85714,572.19495 193.85714,565.26156 C 193.85714,554.38187 192.72656,552.15532 187.20215,552.15532 L 183.85714,552.15532 L 183.85714,565.65532 L 183.85714,579.15532 L 187.30044,579.15532 C 189.72502,579.15532 191.20429,578.49779 192.30044,576.93282 z M 223.85714,586.65532 L 223.85714,534.15532 L 246.35714,534.15532 L 268.85714,534.15532 L 268.85714,544.65532 L 268.85714,555.15532 L 259.85714,555.15532 L 250.85714,555.15532 L 250.85714,565.15532 L 250.85714,575.15532 L 259.35714,575.15532 L 267.85714,575.15532 L 267.85714,585.15532 L 267.85714,595.15532 L 259.35714,595.15532 L 250.85714,595.15532 L 250.85714,606.65532 L 250.85714,618.15532 L 260.85714,618.15532 L 270.85714,618.15532 L 270.85714,628.65532 L 270.85714,639.15532 L 247.35714,639.15532 L 223.85714,639.15532 L 223.85714,586.65532 z M 274.38106,633.93403 C 274.75232,631.03074 277.82381,607.50532 281.20661,581.65532 L 287.35714,534.65532 L 306.92237,534.3848 L 326.4876,534.11428 L 327.63205,542.3848 C 328.61703,549.50294 341.1014,630.53023 342.19962,636.93267 L 342.59025,639.21002 L 328.9737,638.93267 L 315.35714,638.65532 L 315.10663,635.65532 C 314.96885,634.00532 314.59554,629.84282 314.27704,626.40532 L 313.69795,620.15532 L 308.35714,620.15532 L 303.01633,620.15532 L 302.43724,626.40532 C 302.11874,629.84282 301.74543,634.00532 301.60765,635.65532 L 301.35714,638.65532 L 287.5316,638.93403 L 273.70605,639.21274 L 274.38106,633.93403 z M 312.35698,597.40532 C 312.06889,595.34282 311.15056,585.80481 310.31625,576.20974 C 309.48193,566.61467 308.64725,558.6121 308.46139,558.42624 C 307.95668,557.92153 307.12197,563.98123 305.39937,580.65532 C 304.54707,588.90532 303.63764,596.89282 303.37843,598.40532 C 302.9165,601.10069 303.00621,601.15532 307.89396,601.15532 L 312.88078,601.15532 L 312.35698,597.40532 z M 346.85714,586.49691 L 346.85714,533.83849 L 368.10714,534.48011 C 390.95788,535.17006 395.17357,535.86781 399.74818,539.71709 C 405.33221,544.41574 407.22891,550.192 407.26503,562.60915 C 407.30693,577.01447 405.66678,580.88902 398.52365,583.25899 L 393.69016,584.86266 L 398.50688,587.25899 C 406.74873,591.35934 407.2773,593.11952 407.70976,617.90532 L 408.08052,639.15532 L 395.46883,639.15532 L 382.85714,639.15532 L 382.85714,617.22675 C 382.85714,593.0874 382.63142,592.15532 376.78571,592.15532 L 373.85714,592.15532 L 373.85714,615.65532 L 373.85714,639.15532 L 360.35714,639.15532 L 346.85714,639.15532 L 346.85714,586.49691 z M 381.28571,574.58389 C 382.47065,573.39896 382.85714,570.89733 382.85714,564.41263 C 382.85714,554.71597 381.57131,552.15532 376.70215,552.15532 L 373.85714,552.15532 L 373.85714,564.15532 L 373.85714,576.15532 L 376.78571,576.15532 C 378.39643,576.15532 380.42143,575.44818 381.28571,574.58389 z M 418.85714,586.65532 L 418.85714,534.15532 L 432.35714,534.15532 L 445.85714,534.15532 L 445.85714,576.15532 L 445.85714,618.15532 L 454.35714,618.15532 L 462.85714,618.15532 L 462.85714,628.65532 L 462.85714,639.15532 L 440.85714,639.15532 L 418.85714,639.15532 L 418.85714,586.65532 z M 488.85714,630.30631 L 488.85714,621.15532 L 492.70215,621.15532 C 500.09786,621.15532 499.85714,622.68035 499.85714,575.82658 L 499.85714,534.15532 L 513.35714,534.15532 L 526.85714,534.15532 L 526.82442,575.40532 C 526.78796,621.37083 526.23541,629.05185 522.69232,632.84522 C 518.44691,637.39051 515.36935,638.27819 501.75739,638.88357 L 488.85714,639.4573 L 488.85714,630.30631 z M 531.85361,638.43354 C 531.85167,638.00552 533.92052,621.90532 536.45104,602.65532 C 538.98157,583.40532 542.02242,560.23032 543.20848,551.15532 L 545.36497,534.65532 L 565.11105,534.38418 C 584.34044,534.12014 584.85714,534.16586 584.85714,536.13157 C 584.85714,537.65038 597.92429,623.4854 600.1985,636.90532 C 600.57869,639.14878 600.53949,639.15532 586.71847,639.15532 L 572.85714,639.15532 L 572.85714,634.29489 C 572.85714,631.62166 572.57097,627.34666 572.22122,624.79489 L 571.58529,620.15532 L 566.30081,620.15532 L 561.01633,620.15532 L 560.43724,626.40532 C 560.11874,629.84282 559.74543,634.00532 559.60765,635.65532 L 559.35714,638.65532 L 545.60714,638.93354 C 538.04464,639.08656 531.85555,638.86156 531.85361,638.43354 z M 570.35698,597.40532 C 570.06889,595.34282 569.15056,585.80481 568.31625,576.20974 C 567.48193,566.61467 566.58732,558.55217 566.32823,558.29307 C 566.06913,558.03398 565.85714,558.10445 565.85714,558.44968 C 565.85714,559.393 561.96335,594.16266 561.43858,597.90532 L 560.98288,601.15532 L 565.93183,601.15532 L 570.88078,601.15532 L 570.35698,597.40532 z M 604.85714,586.65532 L 604.85714,534.15532 L 622.21785,534.15532 L 639.57856,534.15532 L 640.17498,538.90532 C 641.00122,545.48556 645.76357,575.99355 646.53614,579.65532 L 647.16908,582.65532 L 647.85601,580.15532 C 648.23382,578.78032 649.8428,567.86782 651.43152,555.90532 L 654.3201,534.15532 L 671.58862,534.15532 L 688.85714,534.15532 L 688.85714,586.65532 L 688.85714,639.15532 L 676.85714,639.15532 L 664.85714,639.15532 L 664.85714,604.48865 C 664.85714,585.42199 664.58437,570.09475 664.25099,570.42813 C 663.73166,570.94747 654.90994,634.40884 654.87105,637.90532 C 654.86109,638.79999 652.58306,639.15532 646.85714,639.15532 C 641.03895,639.15532 638.85714,638.80749 638.85714,637.87995 C 638.85714,635.04359 629.82164,570.78649 629.35755,570.3224 C 629.08232,570.04717 628.85714,585.42199 628.85714,604.48865 L 628.85714,639.15532 L 616.85714,639.15532 L 604.85714,639.15532 L 604.85714,586.65532 z"
       id="path2451" />
  </g>
</svg>
